<svg width="3356" height="1478" viewBox="0 0 3356 1478" fill="none" xmlns="http://www.w3.org/2000/svg">
<rect width="3356" height="1478" fill="#8A4BE0"/>
<circle cx="210" cy="1146" r="15" fill="#9663E4"/>
<circle cx="284" cy="1146" r="15" fill="#9663E4"/>
<circle cx="358" cy="1146" r="15" fill="#9663E4"/>
<circle cx="432" cy="1146" r="15" fill="#9663E4"/>
<circle cx="506" cy="1146" r="15" fill="#9663E4"/>
<circle cx="580" cy="1146" r="15" fill="#9663E4"/>
<circle cx="654" cy="1146" r="15" fill="#9663E4"/>
<circle cx="728" cy="1146" r="15" fill="#9663E4"/>
<circle cx="802" cy="1146" r="15" fill="#9663E4"/>
<circle cx="876" cy="1146" r="15" fill="#9663E4"/>
<circle cx="950" cy="1146" r="15" fill="#9663E4"/>
<circle cx="1024" cy="1146" r="15" fill="#9663E4"/>
<circle cx="1098" cy="1146" r="15" fill="#9663E4"/>
<circle cx="136" cy="1211" r="15" fill="#9663E4"/>
<circle cx="210" cy="1211" r="15" fill="#9663E4"/>
<circle cx="284" cy="1211" r="15" fill="#9663E4"/>
<circle cx="358" cy="1211" r="15" fill="#9663E4"/>
<circle cx="432" cy="1211" r="15" fill="#9663E4"/>
<circle cx="506" cy="1211" r="15" fill="#9663E4"/>
<circle cx="580" cy="1211" r="15" fill="#9663E4"/>
<circle cx="654" cy="1211" r="15" fill="#9663E4"/>
<circle cx="728" cy="1211" r="15" fill="#9663E4"/>
<circle cx="802" cy="1211" r="15" fill="#9663E4"/>
<circle cx="876" cy="1211" r="15" fill="#9663E4"/>
<circle cx="950" cy="1211" r="15" fill="#9663E4"/>
<circle cx="1024" cy="1211" r="15" fill="#9663E4"/>
<circle cx="210" cy="1276" r="15" fill="#9663E4"/>
<circle cx="284" cy="1276" r="15" fill="#9663E4"/>
<circle cx="358" cy="1276" r="15" fill="#9663E4"/>
<circle cx="432" cy="1276" r="15" fill="#9663E4"/>
<circle cx="506" cy="1276" r="15" fill="#9663E4"/>
<circle cx="580" cy="1276" r="15" fill="#9663E4"/>
<circle cx="654" cy="1276" r="15" fill="#9663E4"/>
<circle cx="728" cy="1276" r="15" fill="#9663E4"/>
<circle cx="802" cy="1276" r="15" fill="#9663E4"/>
<circle cx="876" cy="1276" r="15" fill="#9663E4"/>
<circle cx="950" cy="1276" r="15" fill="#9663E4"/>
<circle cx="1024" cy="1276" r="15" fill="#9663E4"/>
<circle cx="1098" cy="1276" r="15" fill="#9663E4"/>
<circle cx="136" cy="1341" r="15" fill="#9663E4"/>
<circle cx="210" cy="1341" r="15" fill="#9663E4"/>
<circle cx="284" cy="1341" r="15" fill="#9663E4"/>
<circle cx="358" cy="1341" r="15" fill="#9663E4"/>
<circle cx="432" cy="1341" r="15" fill="#9663E4"/>
<circle cx="506" cy="1341" r="15" fill="#9663E4"/>
<circle cx="580" cy="1341" r="15" fill="#9663E4"/>
<circle cx="654" cy="1341" r="15" fill="#9663E4"/>
<circle cx="728" cy="1341" r="15" fill="#9663E4"/>
<circle cx="802" cy="1341" r="15" fill="#9663E4"/>
<circle cx="876" cy="1341" r="15" fill="#9663E4"/>
<circle cx="950" cy="1341" r="15" fill="#9663E4"/>
<circle cx="1024" cy="1341" r="15" fill="#9663E4"/>
<circle cx="2360" cy="114" r="15" fill="#9663E4"/>
<circle cx="2434" cy="114" r="15" fill="#9663E4"/>
<circle cx="2508" cy="114" r="15" fill="#9663E4"/>
<circle cx="2582" cy="114" r="15" fill="#9663E4"/>
<circle cx="2656" cy="114" r="15" fill="#9663E4"/>
<circle cx="2730" cy="114" r="15" fill="#9663E4"/>
<circle cx="2804" cy="114" r="15" fill="#9663E4"/>
<circle cx="2878" cy="114" r="15" fill="#9663E4"/>
<circle cx="2952" cy="114" r="15" fill="#9663E4"/>
<circle cx="3026" cy="114" r="15" fill="#9663E4"/>
<circle cx="3100" cy="114" r="15" fill="#9663E4"/>
<circle cx="3174" cy="114" r="15" fill="#9663E4"/>
<circle cx="3248" cy="114" r="15" fill="#9663E4"/>
<circle cx="2286" cy="179" r="15" fill="#9663E4"/>
<circle cx="2360" cy="179" r="15" fill="#9663E4"/>
<circle cx="2434" cy="179" r="15" fill="#9663E4"/>
<circle cx="2508" cy="179" r="15" fill="#9663E4"/>
<circle cx="2582" cy="179" r="15" fill="#9663E4"/>
<circle cx="2656" cy="179" r="15" fill="#9663E4"/>
<circle cx="2730" cy="179" r="15" fill="#9663E4"/>
<circle cx="2804" cy="179" r="15" fill="#9663E4"/>
<circle cx="2878" cy="179" r="15" fill="#9663E4"/>
<circle cx="2952" cy="179" r="15" fill="#9663E4"/>
<circle cx="3026" cy="179" r="15" fill="#9663E4"/>
<circle cx="3100" cy="179" r="15" fill="#9663E4"/>
<circle cx="3174" cy="179" r="15" fill="#9663E4"/>
<circle cx="2360" cy="244" r="15" fill="#9663E4"/>
<circle cx="2434" cy="244" r="15" fill="#9663E4"/>
<circle cx="2508" cy="244" r="15" fill="#9663E4"/>
<circle cx="2582" cy="244" r="15" fill="#9663E4"/>
<circle cx="2656" cy="244" r="15" fill="#9663E4"/>
<circle cx="2730" cy="244" r="15" fill="#9663E4"/>
<circle cx="2804" cy="244" r="15" fill="#9663E4"/>
<circle cx="2878" cy="244" r="15" fill="#9663E4"/>
<circle cx="2952" cy="244" r="15" fill="#9663E4"/>
<circle cx="3026" cy="244" r="15" fill="#9663E4"/>
<circle cx="3100" cy="244" r="15" fill="#9663E4"/>
<circle cx="3174" cy="244" r="15" fill="#9663E4"/>
<circle cx="3248" cy="244" r="15" fill="#9663E4"/>
<circle cx="2286" cy="309" r="15" fill="#9663E4"/>
<circle cx="2360" cy="309" r="15" fill="#9663E4"/>
<circle cx="2434" cy="309" r="15" fill="#9663E4"/>
<circle cx="2508" cy="309" r="15" fill="#9663E4"/>
<circle cx="2582" cy="309" r="15" fill="#9663E4"/>
<circle cx="2656" cy="309" r="15" fill="#9663E4"/>
<circle cx="2730" cy="309" r="15" fill="#9663E4"/>
<circle cx="2804" cy="309" r="15" fill="#9663E4"/>
<circle cx="2878" cy="309" r="15" fill="#9663E4"/>
<circle cx="2952" cy="309" r="15" fill="#9663E4"/>
<circle cx="3026" cy="309" r="15" fill="#9663E4"/>
<circle cx="3100" cy="309" r="15" fill="#9663E4"/>
<circle cx="3174" cy="309" r="15" fill="#9663E4"/>
<circle cx="409.911" cy="464.911" r="114.5" transform="rotate(-15.4832 409.911 464.911)" fill="#F96174"/>
<path fill-rule="evenodd" clip-rule="evenodd" d="M376.572 466.097L370.483 449.47C369.363 446.414 368.857 443.166 368.992 439.914C369.128 436.661 369.903 433.467 371.272 430.514C372.642 427.561 374.58 424.907 376.976 422.703C379.371 420.499 382.178 418.788 385.234 417.669C388.291 416.549 391.538 416.043 394.791 416.178C398.043 416.313 401.237 417.088 404.19 418.458C407.144 419.828 409.798 421.766 412.002 424.161C414.206 426.557 415.917 429.363 417.036 432.42L423.126 449.046L433.101 445.392C435.747 444.423 438.669 444.545 441.225 445.731C443.781 446.916 445.762 449.069 446.731 451.715L448.071 455.372C452.109 454.759 456.234 455.56 459.749 457.641C463.264 459.721 465.951 462.953 467.356 466.788C468.76 470.623 468.796 474.826 467.457 478.685C466.117 482.543 463.485 485.82 460.006 487.96L461.345 491.617C462.315 494.263 462.193 497.185 461.007 499.741C459.822 502.297 457.669 504.278 455.023 505.247L388.519 529.604C385.873 530.574 382.951 530.452 380.395 529.266C377.839 528.081 375.858 525.928 374.889 523.282L360.275 483.38C359.306 480.734 359.427 477.812 360.613 475.256C361.799 472.7 363.951 470.719 366.597 469.75L376.572 466.097ZM377.133 447.035C375.518 442.625 375.721 437.755 377.697 433.495C379.673 429.235 383.261 425.934 387.67 424.319C392.08 422.704 396.95 422.907 401.21 424.883C405.47 426.859 408.771 430.446 410.386 434.856L416.475 451.482L383.223 463.661L377.133 447.035ZM420.457 472.651C417.812 473.62 415.659 475.601 414.474 478.157C413.288 480.713 413.166 483.635 414.135 486.281C415.104 488.926 417.085 491.079 419.641 492.264C422.197 493.45 425.119 493.572 427.765 492.603L454.367 482.86C457.012 481.891 459.165 479.91 460.35 477.354C461.536 474.798 461.658 471.876 460.689 469.23C459.72 466.584 457.739 464.432 455.183 463.246C452.627 462.061 449.705 461.939 447.059 462.908L420.457 472.651Z" fill="white"/>
</svg>
